<mxfile host="app.diagrams.net" modified="2022-03-24T01:23:24.521Z" agent="5.0 (Windows NT 10.0; Win64; x64) AppleWebKit/537.36 (KHTML, like Gecko) Chrome/99.0.4844.51 Safari/537.36 Edg/99.0.1150.39" etag="1Bryzbw1Edd0uH67i1Ma" version="17.1.3" type="github">
  <diagram id="C5RBs43oDa-KdzZeNtuy" name="Page-1">
    <mxGraphModel dx="1223" dy="1948" grid="1" gridSize="10" guides="1" tooltips="1" connect="1" arrows="1" fold="1" page="1" pageScale="1" pageWidth="827" pageHeight="1169" math="0" shadow="0">
      <root>
        <mxCell id="WIyWlLk6GJQsqaUBKTNV-0" />
        <mxCell id="WIyWlLk6GJQsqaUBKTNV-1" parent="WIyWlLk6GJQsqaUBKTNV-0" />
        <mxCell id="fLVBjOSfISTW-q-U-M55-0" value="" style="rounded=0;whiteSpace=wrap;html=1;" vertex="1" parent="WIyWlLk6GJQsqaUBKTNV-1">
          <mxGeometry x="140" y="-20" width="700" height="100" as="geometry" />
        </mxCell>
        <mxCell id="fLVBjOSfISTW-q-U-M55-1" value="追踪溯源中心" style="text;html=1;strokeColor=none;fillColor=none;align=center;verticalAlign=middle;whiteSpace=wrap;rounded=0;fontStyle=1;fontSize=16;" vertex="1" parent="WIyWlLk6GJQsqaUBKTNV-1">
          <mxGeometry x="148" y="-20" width="120" height="30" as="geometry" />
        </mxCell>
        <mxCell id="fLVBjOSfISTW-q-U-M55-2" value="溯源事件分析" style="rounded=0;whiteSpace=wrap;html=1;fillColor=#dae8fc;strokeColor=#6c8ebf;" vertex="1" parent="WIyWlLk6GJQsqaUBKTNV-1">
          <mxGeometry x="158" y="20" width="100" height="40" as="geometry" />
        </mxCell>
        <mxCell id="fLVBjOSfISTW-q-U-M55-3" value="画像溯源分析&lt;span style=&quot;color: rgba(0 , 0 , 0 , 0) ; font-family: monospace ; font-size: 0px&quot;&gt;%3CmxGraphModel%3E%3Croot%3E%3CmxCell%20id%3D%220%22%2F%3E%3CmxCell%20id%3D%221%22%20parent%3D%220%22%2F%3E%3CmxCell%20id%3D%222%22%20value%3D%22%E6%BA%AF%E6%BA%90%E4%BA%8B%E4%BB%B6%E5%88%86%E6%9E%90%22%20style%3D%22rounded%3D0%3BwhiteSpace%3Dwrap%3Bhtml%3D1%3BfillColor%3D%23dae8fc%3BstrokeColor%3D%236c8ebf%3B%22%20vertex%3D%221%22%20parent%3D%221%22%3E%3CmxGeometry%20x%3D%22220%22%20y%3D%22140%22%20width%3D%22120%22%20height%3D%2240%22%20as%3D%22geometry%22%2F%3E%3C%2FmxCell%3E%3C%2Froot%3E%3C%2FmxGraphModel%3E&lt;/span&gt;" style="rounded=0;whiteSpace=wrap;html=1;fillColor=#dae8fc;strokeColor=#6c8ebf;" vertex="1" parent="WIyWlLk6GJQsqaUBKTNV-1">
          <mxGeometry x="313" y="20" width="100" height="40" as="geometry" />
        </mxCell>
        <mxCell id="fLVBjOSfISTW-q-U-M55-5" value="追踪溯源辅助" style="rounded=0;whiteSpace=wrap;html=1;fillColor=#dae8fc;strokeColor=#6c8ebf;" vertex="1" parent="WIyWlLk6GJQsqaUBKTNV-1">
          <mxGeometry x="550" y="20" width="100" height="40" as="geometry" />
        </mxCell>
        <mxCell id="fLVBjOSfISTW-q-U-M55-6" value="系统监控管理" style="rounded=0;whiteSpace=wrap;html=1;fillColor=#dae8fc;strokeColor=#6c8ebf;" vertex="1" parent="WIyWlLk6GJQsqaUBKTNV-1">
          <mxGeometry x="720" y="20" width="100" height="40" as="geometry" />
        </mxCell>
        <mxCell id="fLVBjOSfISTW-q-U-M55-48" style="edgeStyle=orthogonalEdgeStyle;rounded=0;orthogonalLoop=1;jettySize=auto;html=1;exitX=0.25;exitY=0;exitDx=0;exitDy=0;entryX=0.5;entryY=1;entryDx=0;entryDy=0;" edge="1" parent="WIyWlLk6GJQsqaUBKTNV-1" source="fLVBjOSfISTW-q-U-M55-7" target="fLVBjOSfISTW-q-U-M55-32">
          <mxGeometry relative="1" as="geometry" />
        </mxCell>
        <mxCell id="fLVBjOSfISTW-q-U-M55-50" style="edgeStyle=orthogonalEdgeStyle;rounded=0;orthogonalLoop=1;jettySize=auto;html=1;exitX=0.25;exitY=0;exitDx=0;exitDy=0;entryX=0.5;entryY=1;entryDx=0;entryDy=0;" edge="1" parent="WIyWlLk6GJQsqaUBKTNV-1" source="fLVBjOSfISTW-q-U-M55-16" target="fLVBjOSfISTW-q-U-M55-49">
          <mxGeometry relative="1" as="geometry" />
        </mxCell>
        <mxCell id="fLVBjOSfISTW-q-U-M55-58" style="edgeStyle=orthogonalEdgeStyle;rounded=0;orthogonalLoop=1;jettySize=auto;html=1;exitX=0.75;exitY=0;exitDx=0;exitDy=0;entryX=0.5;entryY=1;entryDx=0;entryDy=0;" edge="1" parent="WIyWlLk6GJQsqaUBKTNV-1" source="fLVBjOSfISTW-q-U-M55-7" target="fLVBjOSfISTW-q-U-M55-57">
          <mxGeometry relative="1" as="geometry" />
        </mxCell>
        <mxCell id="fLVBjOSfISTW-q-U-M55-7" value="" style="rounded=0;whiteSpace=wrap;html=1;" vertex="1" parent="WIyWlLk6GJQsqaUBKTNV-1">
          <mxGeometry x="138" y="180" width="270" height="180" as="geometry" />
        </mxCell>
        <mxCell id="fLVBjOSfISTW-q-U-M55-8" value="数据接入中心" style="text;html=1;strokeColor=none;fillColor=none;align=center;verticalAlign=middle;whiteSpace=wrap;rounded=0;fontStyle=1;fontSize=16;" vertex="1" parent="WIyWlLk6GJQsqaUBKTNV-1">
          <mxGeometry x="148" y="190" width="120" height="30" as="geometry" />
        </mxCell>
        <mxCell id="fLVBjOSfISTW-q-U-M55-9" value="数据标准化" style="rounded=0;whiteSpace=wrap;html=1;fillColor=#dae8fc;strokeColor=#6c8ebf;" vertex="1" parent="WIyWlLk6GJQsqaUBKTNV-1">
          <mxGeometry x="158" y="230" width="100" height="40" as="geometry" />
        </mxCell>
        <mxCell id="fLVBjOSfISTW-q-U-M55-10" value="数据预处理" style="rounded=0;whiteSpace=wrap;html=1;fillColor=#dae8fc;strokeColor=#6c8ebf;" vertex="1" parent="WIyWlLk6GJQsqaUBKTNV-1">
          <mxGeometry x="158" y="300" width="100" height="40" as="geometry" />
        </mxCell>
        <mxCell id="fLVBjOSfISTW-q-U-M55-11" value="数据采集" style="rounded=0;whiteSpace=wrap;html=1;fillColor=#dae8fc;strokeColor=#6c8ebf;" vertex="1" parent="WIyWlLk6GJQsqaUBKTNV-1">
          <mxGeometry x="288" y="230" width="100" height="40" as="geometry" />
        </mxCell>
        <mxCell id="fLVBjOSfISTW-q-U-M55-15" value="数据存储" style="rounded=0;whiteSpace=wrap;html=1;fillColor=#dae8fc;strokeColor=#6c8ebf;" vertex="1" parent="WIyWlLk6GJQsqaUBKTNV-1">
          <mxGeometry x="288" y="300" width="100" height="40" as="geometry" />
        </mxCell>
        <mxCell id="fLVBjOSfISTW-q-U-M55-53" style="edgeStyle=orthogonalEdgeStyle;rounded=0;orthogonalLoop=1;jettySize=auto;html=1;exitX=0.5;exitY=0;exitDx=0;exitDy=0;entryX=0.5;entryY=1;entryDx=0;entryDy=0;" edge="1" parent="WIyWlLk6GJQsqaUBKTNV-1" target="fLVBjOSfISTW-q-U-M55-52">
          <mxGeometry relative="1" as="geometry">
            <mxPoint x="769" y="180" as="sourcePoint" />
          </mxGeometry>
        </mxCell>
        <mxCell id="fLVBjOSfISTW-q-U-M55-16" value="" style="rounded=0;whiteSpace=wrap;html=1;" vertex="1" parent="WIyWlLk6GJQsqaUBKTNV-1">
          <mxGeometry x="550" y="180" width="290" height="180" as="geometry" />
        </mxCell>
        <mxCell id="fLVBjOSfISTW-q-U-M55-17" value="检测分析中心" style="text;html=1;strokeColor=none;fillColor=none;align=center;verticalAlign=middle;whiteSpace=wrap;rounded=0;fontStyle=1;fontSize=16;" vertex="1" parent="WIyWlLk6GJQsqaUBKTNV-1">
          <mxGeometry x="550" y="190" width="120" height="30" as="geometry" />
        </mxCell>
        <mxCell id="fLVBjOSfISTW-q-U-M55-18" value="关联分析管理" style="rounded=0;whiteSpace=wrap;html=1;fillColor=#dae8fc;strokeColor=#6c8ebf;" vertex="1" parent="WIyWlLk6GJQsqaUBKTNV-1">
          <mxGeometry x="570" y="230" width="100" height="40" as="geometry" />
        </mxCell>
        <mxCell id="fLVBjOSfISTW-q-U-M55-20" value="攻击链聚合分析管理" style="rounded=0;whiteSpace=wrap;html=1;fillColor=#dae8fc;strokeColor=#6c8ebf;" vertex="1" parent="WIyWlLk6GJQsqaUBKTNV-1">
          <mxGeometry x="570" y="300" width="100" height="40" as="geometry" />
        </mxCell>
        <mxCell id="fLVBjOSfISTW-q-U-M55-22" value="安全信息管理" style="rounded=0;whiteSpace=wrap;html=1;fillColor=#dae8fc;strokeColor=#6c8ebf;" vertex="1" parent="WIyWlLk6GJQsqaUBKTNV-1">
          <mxGeometry x="720" y="230" width="100" height="40" as="geometry" />
        </mxCell>
        <mxCell id="fLVBjOSfISTW-q-U-M55-24" value="白名单管理" style="rounded=0;whiteSpace=wrap;html=1;fillColor=#dae8fc;strokeColor=#6c8ebf;" vertex="1" parent="WIyWlLk6GJQsqaUBKTNV-1">
          <mxGeometry x="720" y="300" width="100" height="40" as="geometry" />
        </mxCell>
        <mxCell id="fLVBjOSfISTW-q-U-M55-27" value="&lt;span lang=&quot;EN-US&quot; style=&quot;font-size: 10.5pt ; font-family: &amp;#34;times new roman&amp;#34; , serif&quot;&gt;ZZSY_XQ_NBJK-01&lt;/span&gt;" style="text;html=1;strokeColor=none;fillColor=#FFFFFF;align=center;verticalAlign=middle;whiteSpace=wrap;rounded=0;fontFamily=Helvetica;fontSize=12;fontColor=default;" vertex="1" parent="WIyWlLk6GJQsqaUBKTNV-1">
          <mxGeometry x="123" y="110" width="170" height="30" as="geometry" />
        </mxCell>
        <mxCell id="fLVBjOSfISTW-q-U-M55-32" value="" style="rounded=0;whiteSpace=wrap;html=1;fontFamily=Helvetica;fontSize=16;fontColor=default;" vertex="1" parent="WIyWlLk6GJQsqaUBKTNV-1">
          <mxGeometry x="201" y="80" width="9" height="8" as="geometry" />
        </mxCell>
        <mxCell id="fLVBjOSfISTW-q-U-M55-42" value="" style="group" vertex="1" connectable="0" parent="WIyWlLk6GJQsqaUBKTNV-1">
          <mxGeometry x="870" y="-20" width="80" height="60" as="geometry" />
        </mxCell>
        <mxCell id="fLVBjOSfISTW-q-U-M55-43" value="" style="rounded=0;whiteSpace=wrap;html=1;fontFamily=Helvetica;fontSize=16;fontColor=default;" vertex="1" parent="fLVBjOSfISTW-q-U-M55-42">
          <mxGeometry y="10" width="10" height="10" as="geometry" />
        </mxCell>
        <mxCell id="fLVBjOSfISTW-q-U-M55-44" value="接收" style="text;html=1;strokeColor=none;fillColor=none;align=center;verticalAlign=middle;whiteSpace=wrap;rounded=0;fontFamily=Helvetica;fontSize=16;fontColor=default;" vertex="1" parent="fLVBjOSfISTW-q-U-M55-42">
          <mxGeometry x="20" width="60" height="30" as="geometry" />
        </mxCell>
        <mxCell id="fLVBjOSfISTW-q-U-M55-45" value="" style="ellipse;whiteSpace=wrap;html=1;aspect=fixed;fontFamily=Helvetica;fontSize=16;fontColor=default;" vertex="1" parent="fLVBjOSfISTW-q-U-M55-42">
          <mxGeometry y="40" width="10" height="10" as="geometry" />
        </mxCell>
        <mxCell id="fLVBjOSfISTW-q-U-M55-46" value="发送" style="text;html=1;strokeColor=none;fillColor=none;align=center;verticalAlign=middle;whiteSpace=wrap;rounded=0;fontFamily=Helvetica;fontSize=16;fontColor=default;" vertex="1" parent="fLVBjOSfISTW-q-U-M55-42">
          <mxGeometry x="20" y="30" width="60" height="30" as="geometry" />
        </mxCell>
        <mxCell id="fLVBjOSfISTW-q-U-M55-49" value="" style="rounded=0;whiteSpace=wrap;html=1;fontFamily=Helvetica;fontSize=16;fontColor=default;" vertex="1" parent="WIyWlLk6GJQsqaUBKTNV-1">
          <mxGeometry x="618" y="80" width="8" height="8" as="geometry" />
        </mxCell>
        <mxCell id="fLVBjOSfISTW-q-U-M55-51" value="&lt;span lang=&quot;EN-US&quot; style=&quot;font-size: 10.5pt ; font-family: &amp;#34;times new roman&amp;#34; , serif&quot;&gt;ZZSY_XQ_NBJK-02&lt;/span&gt;" style="text;html=1;strokeColor=none;fillColor=#FFFFFF;align=center;verticalAlign=middle;whiteSpace=wrap;rounded=0;fontFamily=Helvetica;fontSize=12;fontColor=default;" vertex="1" parent="WIyWlLk6GJQsqaUBKTNV-1">
          <mxGeometry x="552" y="110" width="140" height="30" as="geometry" />
        </mxCell>
        <mxCell id="fLVBjOSfISTW-q-U-M55-52" value="" style="rounded=0;whiteSpace=wrap;html=1;fontFamily=Helvetica;fontSize=16;fontColor=default;" vertex="1" parent="WIyWlLk6GJQsqaUBKTNV-1">
          <mxGeometry x="765" y="80" width="8" height="8" as="geometry" />
        </mxCell>
        <mxCell id="fLVBjOSfISTW-q-U-M55-54" value="&lt;span lang=&quot;EN-US&quot; style=&quot;font-size: 10.5pt ; font-family: &amp;#34;times new roman&amp;#34; , serif&quot;&gt;ZZSY_XQ_NBJK-03&lt;/span&gt;" style="text;html=1;strokeColor=none;fillColor=#FFFFFF;align=center;verticalAlign=middle;whiteSpace=wrap;rounded=0;fontFamily=Helvetica;fontSize=12;fontColor=default;" vertex="1" parent="WIyWlLk6GJQsqaUBKTNV-1">
          <mxGeometry x="705" y="110" width="130" height="30" as="geometry" />
        </mxCell>
        <mxCell id="fLVBjOSfISTW-q-U-M55-57" value="" style="rounded=0;whiteSpace=wrap;html=1;fontFamily=Helvetica;fontSize=16;fontColor=default;" vertex="1" parent="WIyWlLk6GJQsqaUBKTNV-1">
          <mxGeometry x="335.5" y="80" width="9" height="8" as="geometry" />
        </mxCell>
        <mxCell id="fLVBjOSfISTW-q-U-M55-59" value="&lt;span lang=&quot;EN-US&quot; style=&quot;font-size: 10.5pt ; font-family: &amp;#34;times new roman&amp;#34; , serif&quot;&gt;ZZSY_XQ_NBJK-04&lt;/span&gt;" style="text;html=1;strokeColor=none;fillColor=#FFFFFF;align=center;verticalAlign=middle;whiteSpace=wrap;rounded=0;fontFamily=Helvetica;fontSize=12;fontColor=default;" vertex="1" parent="WIyWlLk6GJQsqaUBKTNV-1">
          <mxGeometry x="278" y="110" width="170" height="30" as="geometry" />
        </mxCell>
      </root>
    </mxGraphModel>
  </diagram>
</mxfile>
